<mxfile host="app.diagrams.net" modified="2020-07-22T07:53:09.282Z" agent="5.0 (Windows NT 10.0; Win64; x64) AppleWebKit/537.36 (KHTML, like Gecko) Chrome/85.0.4183.38 Safari/537.36" etag="qbvRpIo693fD7ifa8y_T" version="13.4.9" type="github">
  <diagram name="Page-1" id="9361dd3d-8414-5efd-6122-117bd74ce7a7">
    <mxGraphModel dx="1585" dy="635" grid="1" gridSize="10" guides="1" tooltips="1" connect="1" arrows="1" fold="1" page="0" pageScale="1.5" pageWidth="826" pageHeight="1169" background="#ffffff" math="0" shadow="0">
      <root>
        <mxCell id="0" />
        <mxCell id="1" parent="0" />
        <mxCell id="3" value="" style="edgeStyle=none;verticalLabelPosition=top;verticalAlign=bottom;labelPosition=left;align=right;" parent="1" edge="1">
          <mxGeometry x="70" y="290" width="100" height="100" as="geometry">
            <mxPoint x="20" y="170" as="sourcePoint" />
            <mxPoint x="215" y="170" as="targetPoint" />
          </mxGeometry>
        </mxCell>
        <mxCell id="JP9qfhV4WCQ05jMqri1F-105" value="&lt;span style=&quot;font-size: 12px&quot;&gt;devdrv_load_half_probe()&lt;/span&gt;" style="edgeLabel;html=1;align=center;verticalAlign=middle;resizable=0;points=[];" vertex="1" connectable="0" parent="3">
          <mxGeometry relative="1" as="geometry">
            <mxPoint x="-5" y="-1" as="offset" />
          </mxGeometry>
        </mxCell>
        <mxCell id="71" value="atlas200运行后半部分" style="rounded=1;fontStyle=1;fillColor=#FFD966;strokeColor=none" parent="1" vertex="1">
          <mxGeometry x="50" y="20" width="150" height="30" as="geometry" />
        </mxCell>
        <mxCell id="JP9qfhV4WCQ05jMqri1F-101" value="PCI host" style="shape=umlLifeline;perimeter=lifelinePerimeter;whiteSpace=wrap;html=1;container=1;collapsible=0;recursiveResize=0;outlineConnect=0;fillColor=#A2C4C9;" vertex="1" parent="1">
          <mxGeometry x="130" y="90" width="170" height="830" as="geometry" />
        </mxCell>
        <mxCell id="JP9qfhV4WCQ05jMqri1F-102" value="" style="fillColor=#CC4125;strokeColor=#660000" vertex="1" parent="JP9qfhV4WCQ05jMqri1F-101">
          <mxGeometry x="80" y="70" width="10" height="740" as="geometry" />
        </mxCell>
        <mxCell id="JP9qfhV4WCQ05jMqri1F-117" value="devdrv_msg_init()" style="html=1;verticalAlign=bottom;endArrow=block;entryX=0;entryY=0;" edge="1" target="JP9qfhV4WCQ05jMqri1F-116" parent="JP9qfhV4WCQ05jMqri1F-101">
          <mxGeometry relative="1" as="geometry">
            <mxPoint x="90" y="110" as="sourcePoint" />
          </mxGeometry>
        </mxCell>
        <mxCell id="JP9qfhV4WCQ05jMqri1F-123" value="devdrv_get_general_interrupt_db_info()" style="html=1;verticalAlign=bottom;endArrow=block;entryX=0;entryY=0;" edge="1" target="JP9qfhV4WCQ05jMqri1F-122" parent="JP9qfhV4WCQ05jMqri1F-101">
          <mxGeometry relative="1" as="geometry">
            <mxPoint x="90" y="230" as="sourcePoint" />
          </mxGeometry>
        </mxCell>
        <mxCell id="JP9qfhV4WCQ05jMqri1F-103" value="" style="shape=umlActor;verticalLabelPosition=bottom;verticalAlign=top;html=1;strokeColor=#000000;fillColor=#A2C4C9;" vertex="1" parent="1">
          <mxGeometry x="205" y="60" width="20" height="30" as="geometry" />
        </mxCell>
        <mxCell id="JP9qfhV4WCQ05jMqri1F-121" value="msg模块" style="shape=umlLifeline;perimeter=lifelinePerimeter;whiteSpace=wrap;html=1;container=1;collapsible=0;recursiveResize=0;outlineConnect=0;strokeColor=#000000;fillColor=#CC4125;" vertex="1" parent="1">
          <mxGeometry x="370" y="140" width="55" height="290" as="geometry" />
        </mxCell>
        <mxCell id="JP9qfhV4WCQ05jMqri1F-116" value="" style="html=1;points=[];perimeter=orthogonalPerimeter;strokeColor=#000000;fillColor=#CC4125;" vertex="1" parent="JP9qfhV4WCQ05jMqri1F-121">
          <mxGeometry x="22.5" y="60" width="10" height="90" as="geometry" />
        </mxCell>
        <mxCell id="JP9qfhV4WCQ05jMqri1F-122" value="" style="html=1;points=[];perimeter=orthogonalPerimeter;strokeColor=#000000;fillColor=#CC4125;" vertex="1" parent="JP9qfhV4WCQ05jMqri1F-121">
          <mxGeometry x="22.5" y="180" width="10" height="100" as="geometry" />
        </mxCell>
        <mxCell id="JP9qfhV4WCQ05jMqri1F-125" value="DMA模块" style="shape=umlLifeline;perimeter=lifelinePerimeter;whiteSpace=wrap;html=1;container=1;collapsible=0;recursiveResize=0;outlineConnect=0;strokeColor=#000000;fillColor=#CC4125;" vertex="1" parent="1">
          <mxGeometry x="500" y="470" width="55" height="260" as="geometry" />
        </mxCell>
        <mxCell id="JP9qfhV4WCQ05jMqri1F-126" value="" style="html=1;points=[];perimeter=orthogonalPerimeter;strokeColor=#000000;fillColor=#CC4125;" vertex="1" parent="JP9qfhV4WCQ05jMqri1F-125">
          <mxGeometry x="22.5" y="60" width="10" height="200" as="geometry" />
        </mxCell>
        <mxCell id="JP9qfhV4WCQ05jMqri1F-128" value="" style="html=1;points=[];perimeter=orthogonalPerimeter;strokeColor=#000000;fillColor=#CC4125;" vertex="1" parent="1">
          <mxGeometry x="-20" y="510" width="10" height="80" as="geometry" />
        </mxCell>
        <mxCell id="JP9qfhV4WCQ05jMqri1F-129" value="devdrv_dma_init()" style="html=1;verticalAlign=bottom;startArrow=oval;startFill=1;endArrow=block;startSize=8;entryX=0;entryY=0.031;entryDx=0;entryDy=0;entryPerimeter=0;exitX=1;exitY=0.474;exitDx=0;exitDy=0;exitPerimeter=0;" edge="1" parent="1" source="JP9qfhV4WCQ05jMqri1F-102" target="JP9qfhV4WCQ05jMqri1F-126">
          <mxGeometry width="60" relative="1" as="geometry">
            <mxPoint x="220" y="480" as="sourcePoint" />
            <mxPoint x="280" y="480" as="targetPoint" />
          </mxGeometry>
        </mxCell>
        <mxCell id="JP9qfhV4WCQ05jMqri1F-130" value="ATU模块" style="shape=umlLifeline;perimeter=lifelinePerimeter;whiteSpace=wrap;html=1;container=1;collapsible=0;recursiveResize=0;outlineConnect=0;strokeColor=#000000;fillColor=#CC4125;" vertex="1" parent="1">
          <mxGeometry x="440" y="660" width="55" height="260" as="geometry" />
        </mxCell>
        <mxCell id="JP9qfhV4WCQ05jMqri1F-131" value="" style="html=1;points=[];perimeter=orthogonalPerimeter;strokeColor=#000000;fillColor=#CC4125;" vertex="1" parent="JP9qfhV4WCQ05jMqri1F-130">
          <mxGeometry x="22.5" y="60" width="10" height="80" as="geometry" />
        </mxCell>
        <mxCell id="JP9qfhV4WCQ05jMqri1F-138" value="Atlas200" style="shape=umlLifeline;perimeter=lifelinePerimeter;whiteSpace=wrap;html=1;container=1;collapsible=0;recursiveResize=0;outlineConnect=0;fillColor=#A2C4C9;" vertex="1" parent="1">
          <mxGeometry x="820" y="90" width="170" height="830" as="geometry" />
        </mxCell>
        <mxCell id="JP9qfhV4WCQ05jMqri1F-139" value="" style="fillColor=#CC4125;strokeColor=#660000" vertex="1" parent="JP9qfhV4WCQ05jMqri1F-138">
          <mxGeometry x="80" y="70" width="10" height="740" as="geometry" />
        </mxCell>
        <mxCell id="JP9qfhV4WCQ05jMqri1F-140" value="devdrv_msg_init()" style="html=1;verticalAlign=bottom;endArrow=block;entryX=0;entryY=0;" edge="1" parent="JP9qfhV4WCQ05jMqri1F-138">
          <mxGeometry relative="1" as="geometry">
            <mxPoint x="90" y="110" as="sourcePoint" />
          </mxGeometry>
        </mxCell>
        <mxCell id="JP9qfhV4WCQ05jMqri1F-141" value="return" style="html=1;verticalAlign=bottom;endArrow=open;dashed=1;endSize=8;exitX=0;exitY=0.95;" edge="1" parent="JP9qfhV4WCQ05jMqri1F-138">
          <mxGeometry relative="1" as="geometry">
            <mxPoint x="90" y="186" as="targetPoint" />
          </mxGeometry>
        </mxCell>
        <mxCell id="JP9qfhV4WCQ05jMqri1F-142" value="devdrv_get_general_interrupt_db_info()" style="html=1;verticalAlign=bottom;endArrow=block;entryX=0;entryY=0;" edge="1" parent="JP9qfhV4WCQ05jMqri1F-138">
          <mxGeometry relative="1" as="geometry">
            <mxPoint x="90" y="230" as="sourcePoint" />
          </mxGeometry>
        </mxCell>
        <mxCell id="JP9qfhV4WCQ05jMqri1F-144" value="bar0空间写入&lt;span style=&quot;font-size: 12px ; background-color: rgb(248 , 249 , 250)&quot;&gt;MSG_CHAN_DB数据，触发doorbell&lt;/span&gt;" style="html=1;verticalAlign=bottom;endArrow=block;exitX=1.25;exitY=0.833;exitDx=0;exitDy=0;exitPerimeter=0;" edge="1" parent="1" source="JP9qfhV4WCQ05jMqri1F-122" target="JP9qfhV4WCQ05jMqri1F-138">
          <mxGeometry width="80" relative="1" as="geometry">
            <mxPoint x="570" y="530" as="sourcePoint" />
            <mxPoint x="650" y="530" as="targetPoint" />
          </mxGeometry>
        </mxCell>
        <mxCell id="JP9qfhV4WCQ05jMqri1F-148" value="命令数据封装" style="html=1;points=[];perimeter=orthogonalPerimeter;strokeColor=#000000;fillColor=#CC4125;" vertex="1" parent="1">
          <mxGeometry x="610" y="330" width="10" height="40" as="geometry" />
        </mxCell>
        <mxCell id="JP9qfhV4WCQ05jMqri1F-149" value="填充sq DMA区域" style="html=1;verticalAlign=bottom;endArrow=block;entryX=0;entryY=0;" edge="1" target="JP9qfhV4WCQ05jMqri1F-148" parent="1" source="JP9qfhV4WCQ05jMqri1F-122">
          <mxGeometry relative="1" as="geometry">
            <mxPoint x="548" y="330" as="sourcePoint" />
          </mxGeometry>
        </mxCell>
        <mxCell id="JP9qfhV4WCQ05jMqri1F-150" value="" style="html=1;verticalAlign=bottom;endArrow=open;dashed=1;endSize=8;exitX=0;exitY=0.95;" edge="1" source="JP9qfhV4WCQ05jMqri1F-148" parent="1" target="JP9qfhV4WCQ05jMqri1F-122">
          <mxGeometry relative="1" as="geometry">
            <mxPoint x="530" y="375" as="targetPoint" />
          </mxGeometry>
        </mxCell>
        <mxCell id="JP9qfhV4WCQ05jMqri1F-154" value="" style="html=1;points=[];perimeter=orthogonalPerimeter;strokeColor=#000000;fillColor=#CC4125;" vertex="1" parent="1">
          <mxGeometry x="440" y="545" width="10" height="80" as="geometry" />
        </mxCell>
        <mxCell id="JP9qfhV4WCQ05jMqri1F-155" value="dispatch" style="html=1;verticalAlign=bottom;endArrow=block;entryX=0;entryY=0;exitX=1.25;exitY=0.525;exitDx=0;exitDy=0;exitPerimeter=0;" edge="1" target="JP9qfhV4WCQ05jMqri1F-154" parent="1" source="JP9qfhV4WCQ05jMqri1F-102">
          <mxGeometry relative="1" as="geometry">
            <mxPoint x="370" y="545" as="sourcePoint" />
          </mxGeometry>
        </mxCell>
        <mxCell id="JP9qfhV4WCQ05jMqri1F-156" value="return" style="html=1;verticalAlign=bottom;endArrow=open;dashed=1;endSize=8;exitX=0;exitY=0.95;entryX=1.333;entryY=0.62;entryDx=0;entryDy=0;entryPerimeter=0;" edge="1" source="JP9qfhV4WCQ05jMqri1F-154" parent="1" target="JP9qfhV4WCQ05jMqri1F-102">
          <mxGeometry relative="1" as="geometry">
            <mxPoint x="370" y="621" as="targetPoint" />
          </mxGeometry>
        </mxCell>
        <mxCell id="JP9qfhV4WCQ05jMqri1F-158" value="创建msg_dev &lt;br&gt;创建msg_chan" style="html=1;points=[];perimeter=orthogonalPerimeter;strokeColor=#000000;fillColor=#CC4125;" vertex="1" parent="1">
          <mxGeometry x="495" y="200" width="10" height="40" as="geometry" />
        </mxCell>
        <mxCell id="JP9qfhV4WCQ05jMqri1F-159" value="初始化" style="html=1;verticalAlign=bottom;endArrow=block;entryX=0;entryY=0;exitX=0.833;exitY=0;exitDx=0;exitDy=0;exitPerimeter=0;" edge="1" target="JP9qfhV4WCQ05jMqri1F-158" parent="1" source="JP9qfhV4WCQ05jMqri1F-116">
          <mxGeometry relative="1" as="geometry">
            <mxPoint x="510" y="200" as="sourcePoint" />
          </mxGeometry>
        </mxCell>
        <mxCell id="JP9qfhV4WCQ05jMqri1F-160" value="" style="html=1;verticalAlign=bottom;endArrow=open;dashed=1;endSize=8;exitX=0;exitY=0.95;" edge="1" source="JP9qfhV4WCQ05jMqri1F-158" parent="1" target="JP9qfhV4WCQ05jMqri1F-121">
          <mxGeometry relative="1" as="geometry">
            <mxPoint x="530" y="238" as="targetPoint" />
          </mxGeometry>
        </mxCell>
        <mxCell id="JP9qfhV4WCQ05jMqri1F-118" value="return" style="html=1;verticalAlign=bottom;endArrow=open;dashed=1;endSize=8;exitX=0;exitY=0.95;entryX=0.917;entryY=0.168;entryDx=0;entryDy=0;entryPerimeter=0;" edge="1" source="JP9qfhV4WCQ05jMqri1F-116" parent="1" target="JP9qfhV4WCQ05jMqri1F-102">
          <mxGeometry relative="1" as="geometry">
            <mxPoint x="220" y="276" as="targetPoint" />
          </mxGeometry>
        </mxCell>
        <mxCell id="JP9qfhV4WCQ05jMqri1F-161" value="&lt;font style=&quot;font-size: 11px&quot;&gt;分配sq DMA，并赋值给bar2 IEP_SDI0&lt;/font&gt;" style="html=1;points=[];perimeter=orthogonalPerimeter;strokeColor=#000000;fillColor=#CC4125;" vertex="1" parent="1">
          <mxGeometry x="580" y="260" width="10" height="25" as="geometry" />
        </mxCell>
        <mxCell id="JP9qfhV4WCQ05jMqri1F-162" value="admin msg chan 初始化" style="html=1;verticalAlign=bottom;endArrow=block;entryX=0;entryY=0;" edge="1" target="JP9qfhV4WCQ05jMqri1F-161" parent="1" source="JP9qfhV4WCQ05jMqri1F-121">
          <mxGeometry relative="1" as="geometry">
            <mxPoint x="530" y="250" as="sourcePoint" />
          </mxGeometry>
        </mxCell>
        <mxCell id="JP9qfhV4WCQ05jMqri1F-163" value="" style="html=1;verticalAlign=bottom;endArrow=open;dashed=1;endSize=8;exitX=0;exitY=0.95;" edge="1" source="JP9qfhV4WCQ05jMqri1F-161" parent="1" target="JP9qfhV4WCQ05jMqri1F-121">
          <mxGeometry relative="1" as="geometry">
            <mxPoint x="530" y="283" as="targetPoint" />
          </mxGeometry>
        </mxCell>
      </root>
    </mxGraphModel>
  </diagram>
</mxfile>
